<?xml version="1.0" encoding="UTF-8" standalone="no"?><!DOCTYPE svg PUBLIC "-//W3C//DTD SVG 1.1//EN" "http://www.w3.org/Graphics/SVG/1.1/DTD/svg11.dtd"><svg width="100%" height="100%" viewBox="0 0 1557 674" version="1.1" xmlns="http://www.w3.org/2000/svg" xmlns:xlink="http://www.w3.org/1999/xlink" xml:space="preserve" xmlns:serif="http://www.serif.com/" style="fill-rule:evenodd;clip-rule:evenodd;stroke-linecap:round;stroke-linejoin:round;stroke-miterlimit:1.5;"><path d="M649,149.5l137,375l-165,0l-137,-375l165,0Z" style="fill:#d7076b;stroke:#d7076b;stroke-width:25px;"/><path d="M437,149.5l137,375l-165,0l-137,-375l165,0Z" style="fill:#9901e5;stroke:#9901e5;stroke-width:25px;"/><path d="M226,149.5l137,375l-165,0l-137,-375l165,0Z" style="fill:#1186f5;stroke:#1186f5;stroke-width:25px;"/><g transform="matrix(523.517382,0,0,523.517382,712,522.325153)"><path d="M0.147,-0.71l0.192,0.546l0.19,-0.546l0.145,0l-0.269,0.71l-0.133,-0l-0.271,-0.71l0.145,0Z" style="fill:#fff;fill-rule:nonzero;stroke:#fff;stroke-width:0.05px;stroke-linecap:butt;stroke-miterlimit:2;"/></g><g transform="matrix(523.517382,0,0,523.517382,879.730922,522.325153)"><path d="M0.267,-0.71l0.14,0l0.261,0.71l-0.142,-0l-0.066,-0.177l-0.249,0l-0.065,0.177l-0.142,-0l0.262,-0.71Zm0.169,0.436l-0.099,-0.293l-0.102,0.293l0.201,0Z" style="fill:#fff;fill-rule:nonzero;stroke:#fff;stroke-width:0.05px;stroke-linecap:butt;stroke-miterlimit:2;"/></g><g transform="matrix(523.517382,0,0,523.517382,1165.304594,522.325153)"><path d="M0.031,-0.36c0,-0.043 0.008,-0.086 0.023,-0.128c0.016,-0.042 0.038,-0.08 0.068,-0.114c0.03,-0.034 0.067,-0.061 0.11,-0.082c0.043,-0.02 0.092,-0.03 0.147,-0.03c0.065,0 0.122,0.014 0.17,0.043c0.048,0.029 0.083,0.066 0.106,0.112l-0.106,0.073c-0.012,-0.027 -0.027,-0.048 -0.046,-0.064c-0.019,-0.015 -0.04,-0.026 -0.062,-0.033c-0.022,-0.006 -0.044,-0.009 -0.065,-0.009c-0.034,0 -0.064,0.007 -0.09,0.021c-0.026,0.014 -0.047,0.032 -0.065,0.055c-0.017,0.023 -0.03,0.048 -0.039,0.076c-0.009,0.028 -0.013,0.056 -0.013,0.084c0,0.031 0.005,0.061 0.015,0.09c0.01,0.029 0.024,0.054 0.043,0.077c0.018,0.022 0.04,0.04 0.066,0.053c0.026,0.013 0.054,0.019 0.085,0.019c0.022,-0 0.044,-0.004 0.067,-0.011c0.023,-0.007 0.044,-0.019 0.063,-0.035c0.019,-0.016 0.035,-0.037 0.045,-0.062l0.113,0.065c-0.014,0.035 -0.037,0.065 -0.069,0.09c-0.032,0.025 -0.067,0.043 -0.106,0.056c-0.039,0.013 -0.078,0.019 -0.117,0.019c-0.05,0 -0.097,-0.01 -0.139,-0.032c-0.042,-0.021 -0.078,-0.049 -0.109,-0.084c-0.031,-0.035 -0.054,-0.074 -0.071,-0.118c-0.017,-0.044 -0.025,-0.088 -0.025,-0.133Z" style="fill:#fff;fill-rule:nonzero;stroke:#fff;stroke-width:0.05px;stroke-linecap:butt;stroke-miterlimit:2;"/></g><g transform="matrix(523.517382,0,0,523.517382,1524.468248,522.325153)"></g></svg>